# xmcd
#
# Track frame offsets:
#	150
#	13162
#	28755
#	43175
#	58033
#	75133
#	86398
#	97098
#	108528
#	121292
#	135600
#	155655
#
# Disc length: 2255 seconds
#
# Revision: 0
# Processed by: cddbd v1.5.2PL0 Copyright (c) Steve Scherf et al.
# Submitted via: audiograbber 1.83.01
#
DISCID=9708cd0c
DTITLE=Willy Millowitsch and Lotti Krekel - Kölsche Leedcher
DYEAR=1900
DGENRE=National Folk
TTITLE0=De Kölsche Schusterjunge
TTITLE1=Ach Mutter, Du Hast Ja So Recht
TTITLE2=Es Soll Keiner Sagen, Wer Trinkt, Der Ist Schlecht
TTITLE3=Putz Die Tränchen Ab
TTITLE4=Kölsche Jung
TTITLE5=Ävver Kaffee Koche Künne Kann Se Jot
TTITLE6=Karussellchesleed
TTITLE7=Bleiben Sie Mensch
TTITLE8=Seid Doch Nett Zueinander
TTITLE9=Mir Schenke Der Ahl E Paar Blömcher
TTITLE10=Nimm's Doch Nicht So Schwer
TTITLE11=Ne Besuch Em Zoo
EXTD=
EXTT0=
EXTT1=
EXTT2=
EXTT3=
EXTT4=
EXTT5=
EXTT6=
EXTT7=
EXTT8=
EXTT9=
EXTT10=
EXTT11=
PLAYORDER=
